# xmcd
#
# Track frame offsets:
#	150
#	17623
#	33918
#	51499
#	73064
#	95545
#	120204
#	137521
#	160867
#	183774
#	202316
#	226245
#
# Disc length: 3298 seconds
#
# Revision: 0
# Processed by: cddbd v1.5.2PL0 Copyright (c) Steve Scherf et al.
# Submitted via: EasyCDDAExtractor 12.1.0.1
#
DISCID=9b0ce00c
DTITLE=Laineen Kasperi - Pako-Laine
DYEAR=2012
DGENRE=Rap
TTITLE0=M&C
TTITLE1=Eläköön!
TTITLE2=Wildstyle
TTITLE3=Blaa blaa blaa (mukana Stepa)
TTITLE4=Unta on kaikki tää
TTITLE5=Pako-Laine vs. Paho-Laine
TTITLE6=7 miljardia soluttautujaa
TTITLE7=Valtakunta
TTITLE8=Friikki
TTITLE9=Toimii (mukana Kaucas)
TTITLE10=Rotta-tango
TTITLE11=Tunnustus äitille
EXTD=
EXTT0=
EXTT1=
EXTT2=
EXTT3=
EXTT4=
EXTT5=
EXTT6=
EXTT7=
EXTT8=
EXTT9=
EXTT10=
EXTT11=
PLAYORDER=
